# xmcd CD database file
#
# Track frame offsets:
# 150
# 40528
# 97403
# 144443
# 202460
# 250438
#
# Disc length: 3445 seconds
# Revision: 11
# Processed by: cddbd v1.5.2PL0 Copyright (c) Steve Scherf et al.
# Submitted via: MusicBin 0.4
#
DISCID=5c0d7306
DTITLE=Miles Davis - Miles In Berlin
DYEAR=1964
DGENRE=Jazz
TTITLE0=Milestones
TTITLE1=Autumn Leaves
TTITLE2=So What
TTITLE3=Stella by Starlight
TTITLE4=Walkin'
TTITLE5=Go-Go (The Theme) and announcement
EXTD=Recorded live at the Berlin Philharmonie, Berlin, Germany on 
EXTD=September 25, 1964
EXTT0=
EXTT1=
EXTT2=
EXTT3=
EXTT4=
EXTT5=
PLAYORDER=
